# xmcd
#
# Track frame offsets:
#	150
#	19383
#	33355
#	48943
#	66065
#	86343
#	102574
#	119481
#	136321
#	151580
#	167588
#
# Disc length: 2460 seconds
#
# Revision: 3
# Processed by: cddbd v1.5.2PL0 Copyright (c) Steve Scherf et al.
# Submitted via: audiograbber 1.83.01
#
DISCID=86099a0b
DTITLE=Star Academy 2 - Les singles
DYEAR=2003
DGENRE=Chanson
TTITLE0=01 - Star Academy - Un Autre Monde
TTITLE1=02 - Georges-Alain Jones - Embrasse
TTITLE2=03 - Emma - Au Jour Le Jour
TTITLE3=04 - Jérémy Chatelain - Laisse-moi
TTITLE4=05 - Nolwenn Leroy - Cassé
TTITLE5=06 - Houcine - Être Un Homme Comme Vous (I Wanna Be Like You)
TTITLE6=07 - Fabien - Pas De Temps à Perdre
TTITLE7=08 - Aurélie Konaté - Quitte ou Double
TTITLE8=09 - Alexendre Balduzzi - Tous Le Monde Me Dit
TTITLE9=10 - Anne-Laure - Superwoman
TTITLE10=11 - Star Academy - L'amitié
EXTD=
EXTT0=
EXTT1=
EXTT2=
EXTT3=
EXTT4=
EXTT5=
EXTT6=
EXTT7=
EXTT8=
EXTT9=
EXTT10=
PLAYORDER=
